<?xml version="1.0" encoding="iso-8859-1"?>
<!-- Generator: Adobe Illustrator 17.1.0, SVG Export Plug-In . SVG Version: 6.00 Build 0)  -->
<!DOCTYPE svg PUBLIC "-//W3C//DTD SVG 1.1//EN" "http://www.w3.org/Graphics/SVG/1.1/DTD/svg11.dtd">
<svg version="1.1" id="Capa_1" xmlns="http://www.w3.org/2000/svg" xmlns:xlink="http://www.w3.org/1999/xlink" x="0px" y="0px"
	 viewBox="0 0 427.474 427.474" style="enable-background:new 0 0 427.474 427.474;" xml:space="preserve">
<path d="M406.101,21.331C385.512,0.744,356.979-5.783,336.712,5.457c-3.389,1.88-7.607,4.219-24.044,41.97
	c-6.105,14.021-11.665,27.857-13.583,32.673l-60.127,61.55c-3.911-3.824-10.181-3.794-14.059,0.082
	c-3.905,3.905-3.905,10.237,0,14.143l0.083,0.082L8.776,377.273C-2.737,389.06-2.92,407.835,8.369,419.125
	c5.572,5.572,12.967,8.35,20.445,8.35c7.675,0,15.437-2.926,21.407-8.758l221.317-216.203l0.082,0.082
	c3.905,3.904,10.237,3.904,14.143,0c3.877-3.878,3.905-10.146,0.083-14.059l62.102-60.667c5.004-1.962,18.448-7.284,32.081-13.132
	c34.589-14.837,39.355-19.468,41.713-23.602C433.323,70.827,426.891,42.122,406.101,21.331z M36.245,404.41
	c-3.922,3.833-10.213,4.094-13.733,0.572c-3.522-3.522-3.26-9.811,0.572-13.733l216.041-221.15l18.271,18.271L36.245,404.41z
	 M271.703,174.393l-18.602-18.602l54.695-55.988l19.896,19.896L271.703,174.393z M404.825,80.382
	c-5.787,4.582-34.502,17.189-60.668,27.498l-5.212-5.212l30.064-30.034c3.907-3.903,3.911-10.234,0.007-14.142
	c-3.903-3.907-10.235-3.909-14.142-0.007l-30.071,30.04l-5.398-5.397c10.536-26.255,23.284-54.843,27.898-60.647
	c12.325-6.104,30.908-0.755,44.656,12.993C405.615,49.13,411.022,68.22,404.825,80.382z"/>
<g>
</g>
<g>
</g>
<g>
</g>
<g>
</g>
<g>
</g>
<g>
</g>
<g>
</g>
<g>
</g>
<g>
</g>
<g>
</g>
<g>
</g>
<g>
</g>
<g>
</g>
<g>
</g>
<g>
</g>
</svg>
