<?xml version="1.0" standalone="no"?>
<!DOCTYPE svg PUBLIC "-//W3C//DTD SVG 20010904//EN"
 "http://www.w3.org/TR/2001/REC-SVG-20010904/DTD/svg10.dtd">
<svg version="1.0" xmlns="http://www.w3.org/2000/svg"
 width="360.000000pt" height="360.000000pt" viewBox="0 0 360.000000 360.000000"
 preserveAspectRatio="xMidYMid meet">
<metadata>
Created by potrace 1.11, written by Peter Selinger 2001-2013
</metadata>
<g transform="translate(0.000000,360.000000) scale(0.100000,-0.100000)"
fill="#000000" stroke="none">
<path d="M1381 3031 c-140 -52 -179 -135 -119 -254 13 -25 17 -49 14 -70 -5
-24 -4 -27 3 -12 8 19 10 18 20 -9 22 -55 75 -134 86 -129 9 3 14 -21 19 -79
4 -46 18 -173 31 -283 18 -145 21 -201 13 -206 -16 -10 -1 -1087 15 -1138 28
-83 132 -105 191 -39 20 22 31 28 34 19 23 -68 158 -87 196 -28 14 21 47 293
121 1007 14 129 29 258 34 285 6 28 10 61 9 75 0 22 -6 -5 -24 -109 -4 -23 -9
-30 -16 -23 -7 7 -1 75 21 224 17 117 34 232 37 255 7 51 23 47 25 -5 2 -33 2
-34 6 -8 3 16 15 43 28 60 28 38 79 140 100 198 18 53 19 74 1 33 l-13 -30 -7
33 c-5 19 -13 31 -19 29 -7 -2 -21 3 -31 12 -15 12 -20 13 -23 3 -4 -10 -9
-10 -23 3 -10 9 -42 18 -72 21 -49 4 -85 10 -98 14 -15 6 -68 -4 -92 -16 -28
-14 -53 -71 -45 -101 40 -147 61 -200 76 -196 15 4 16 -3 10 -74 -4 -43 -12
-160 -19 -260 -9 -131 -17 -183 -25 -183 -20 0 -58 -269 -125 -870 -17 -157
-36 -294 -41 -305 -9 -19 -9 -19 -4 1 3 12 1 142 -4 290 -6 148 -13 406 -17
574 -4 168 -11 292 -14 275 -6 -26 -8 -28 -15 -11 -5 11 -3 114 3 230 7 116
12 237 12 269 0 44 3 57 15 57 10 0 15 -11 16 -32 l1 -33 8 35 c6 30 69 175
100 232 5 9 6 44 2 80 -9 72 -44 126 -115 175 -35 25 -49 28 -136 30 -76 3
-107 -1 -150 -16z m221 -498 c0 -27 0 -55 0 -63 -1 -8 -7 -114 -13 -235 -7
-140 -16 -223 -23 -227 -6 -4 -25 -8 -42 -8 l-31 0 -12 133 c-7 72 -19 177
-27 231 -18 124 -18 203 -1 209 6 3 42 6 80 6 l67 1 2 -47z m425 34 c4 -5 -29
-295 -43 -374 -6 -30 -8 -31 -47 -28 -49 4 -46 -20 -22 220 21 209 18 199 66
192 23 -3 43 -8 46 -10z m-52 -427 c3 -5 3 -16 -2 -22 -4 -7 -6 -25 -4 -40 2
-27 1 -28 -44 -28 l-47 0 7 43 c4 23 9 45 12 50 6 11 71 9 78 -3z m-435 -520
c-13 -9 -13 -10 0 -10 12 0 16 -13 17 -50 0 -27 -3 -50 -8 -50 -8 0 -14 49
-10 74 1 4 -3 14 -9 20 -10 14 -4 26 14 26 6 0 4 -5 -4 -10z m321 -29 c-9 -6
-10 -11 -2 -15 14 -9 15 -96 1 -96 -6 0 -8 17 -6 39 2 21 0 45 -5 52 -9 15 -3
29 14 29 8 0 8 -3 -2 -9z m-338 -56 c-3 -9 -8 -14 -10 -11 -3 3 -2 9 2 15 9
16 15 13 8 -4z m34 -193 c-12 -16 -20 -9 -23 22 -2 23 -1 24 15 8 12 -12 15
-21 8 -30z m13 38 c0 -5 -4 -10 -10 -10 -5 0 -10 5 -10 10 0 6 5 10 10 10 6 0
10 -4 10 -10z m280 -55 c0 -2 -6 -8 -13 -14 -10 -8 -14 -7 -14 2 0 8 6 14 14
14 7 0 13 -1 13 -2z m-283 -11 c-3 -3 -12 -4 -19 -1 -8 3 -5 6 6 6 11 1 17 -2
13 -5z m-7 -33 c-7 -14 -6 -21 3 -24 7 -3 5 -6 -5 -6 -16 -1 -18 14 -9 47 1 1
6 2 11 2 7 0 7 -6 0 -19z m287 3 c-3 -3 -12 -4 -19 -1 -8 3 -5 6 6 6 11 1 17
-2 13 -5z m-7 -22 c0 -5 -7 -9 -15 -9 -8 0 -12 4 -9 9 3 4 9 8 15 8 5 0 9 -4
9 -8z"/>
<path d="M1485 2460 c-4 -6 8 -10 29 -10 19 0 38 5 41 10 4 6 -8 10 -29 10
-19 0 -38 -4 -41 -10z"/>
<path d="M1918 2113 c7 -3 16 -2 19 1 4 3 -2 6 -13 5 -11 0 -14 -3 -6 -6z"/>
<path d="M2405 2760 c-3 -5 -12 -7 -19 -4 -8 3 -28 -7 -45 -23 -38 -34 -52
-93 -28 -117 12 -12 17 -13 20 -3 4 9 7 9 14 0 5 -7 20 -12 33 -11 51 3 77 -3
97 -21 12 -11 23 -17 27 -14 3 3 8 0 11 -8 6 -16 -28 -112 -37 -103 -3 3 -9
-5 -13 -18 -4 -13 -24 -59 -45 -103 -21 -44 -53 -121 -70 -171 l-31 -91 -37 2
c-30 2 -37 7 -35 21 2 11 9 63 18 116 8 54 15 121 15 150 0 29 4 70 9 91 5 20
5 37 0 37 -10 0 -13 -20 -39 -225 -12 -88 -22 -169 -24 -180 -15 -84 -20 -101
-26 -110 -17 -22 -167 -600 -263 -1017 -28 -119 -32 -152 -23 -170 25 -50 103
-59 130 -14 13 20 180 684 250 996 20 85 38 166 42 180 4 19 3 21 -5 10 -26
-38 -17 36 14 105 18 42 102 274 110 308 4 15 10 26 12 23 3 -3 -5 -35 -17
-71 -12 -36 -20 -68 -18 -70 6 -6 137 402 138 428 0 5 -4 6 -9 2 -5 -3 -13 4
-16 16 -4 12 -12 18 -20 15 -9 -3 -12 0 -8 10 4 10 0 12 -11 8 -9 -4 -16 -1
-16 6 0 7 -8 10 -20 7 -12 -3 -20 0 -20 7 0 14 -37 19 -45 6z m-97 -717 c2 -7
-5 -13 -15 -13 -15 0 -15 -2 -4 -9 12 -8 13 -15 4 -34 -9 -19 -17 -23 -37 -20
-28 6 -30 12 -20 62 6 29 10 32 37 29 17 -2 32 -9 35 -15z m-166 -593 c-6 -15
-8 -31 -5 -34 4 -3 1 -6 -5 -6 -7 0 -10 14 -7 38 2 20 4 44 5 52 0 12 3 11 11
-3 7 -12 7 -27 1 -47z m-38 -162 c-3 -4 -9 -8 -15 -8 -5 0 -9 4 -9 8 0 5 7 9
15 9 8 0 12 -4 9 -9z m-10 -30 c-3 -4 -9 -8 -15 -8 -5 0 -9 4 -9 8 0 5 7 9 15
9 8 0 12 -4 9 -9z m-14 -62 c0 -17 -14 -29 -23 -20 -8 8 3 34 14 34 5 0 9 -6
9 -14z"/>
<path d="M1262 2650 c0 -14 2 -19 5 -12 2 6 2 18 0 25 -3 6 -5 1 -5 -13z"/>
<path d="M1252 2595 c0 -16 2 -22 5 -12 2 9 2 23 0 30 -3 6 -5 -1 -5 -18z"/>
<path d="M453 2554 c-16 -25 -15 -29 27 -127 46 -109 102 -273 201 -587 68
-218 339 -1008 372 -1083 21 -51 50 -71 80 -55 9 5 17 20 17 35 0 58 -437
1308 -472 1350 -5 7 -7 16 -4 22 3 5 2 11 -3 13 -6 1 -12 14 -15 28 -3 14 -17
63 -31 109 -14 46 -25 93 -25 105 -1 46 -40 169 -61 192 -30 32 -64 31 -86 -2z
m112 -105 c8 -36 9 -34 -33 -42 -29 -6 -34 -3 -43 20 -11 30 -13 27 26 41 43
15 43 15 50 -19z m15 -82 c0 -12 12 -60 25 -106 29 -97 30 -111 12 -111 -8 0
-29 41 -50 98 -20 53 -38 104 -42 112 -3 10 3 19 17 26 29 13 38 9 38 -19z
m70 -253 c14 -35 13 -44 -5 -44 -17 0 -39 46 -29 61 10 16 24 9 34 -17z"/>
<path d="M2726 2564 c-10 -27 -7 -34 18 -34 36 0 48 -21 35 -59 -12 -34 -16
-36 -53 -21 -36 13 -24 43 15 38 15 -3 26 -1 23 4 -3 4 -18 8 -33 8 -26 0 -29
-5 -51 -77 -30 -102 -95 -279 -119 -323 -11 -19 -38 -82 -61 -140 -85 -212
-412 -1093 -428 -1153 -13 -46 7 -77 48 -77 37 0 42 9 126 238 302 819 465
1287 457 1307 -2 8 0 22 7 32 9 15 10 14 4 -7 -3 -14 -4 -23 -1 -20 7 8 107
251 107 263 0 32 -83 50 -94 21z m-16 -224 c-21 -47 -47 -114 -59 -151 -28
-81 -37 -97 -50 -84 -5 6 -5 19 2 35 6 14 11 34 13 45 1 11 19 70 40 131 36
103 40 111 65 110 l25 -1 -36 -85z m-39 -156 c-11 -27 -20 -45 -20 -39 -1 14
31 96 36 92 2 -3 -5 -26 -16 -53z m-30 -77 c-10 -9 -11 -8 -5 6 3 10 9 15 12
12 3 -3 0 -11 -7 -18z m-253 -587 c-14 -42 -27 -38 -14 4 6 19 14 32 18 30 4
-2 2 -18 -4 -34z m-58 -170 c0 -5 -5 -10 -11 -10 -5 0 -7 5 -4 10 3 6 8 10 11
10 2 0 4 -4 4 -10z m-30 -55 c0 -8 -4 -15 -10 -15 -5 0 -7 7 -4 15 4 8 8 15
10 15 2 0 4 -7 4 -15z"/>
<path d="M1237 2521 c-4 -18 -7 -43 -6 -55 1 -11 5 -1 10 24 5 25 7 49 6 55
-2 5 -7 -5 -10 -24z"/>
<path d="M2982 2532 c-7 -5 -19 -44 -26 -88 -10 -60 -32 -118 -90 -244 -43
-91 -88 -181 -102 -200 -25 -38 -127 -251 -418 -873 -187 -400 -187 -400 -135
-427 16 -9 26 -8 46 5 14 10 23 13 19 7 -9 -16 33 -62 58 -62 12 0 28 6 35 12
11 10 12 10 7 1 -13 -23 13 -54 41 -51 21 2 59 48 195 233 363 491 641 881
784 1097 98 149 125 198 118 210 -9 14 -53 -32 -138 -141 -42 -53 -91 -116
-111 -141 -104 -134 -467 -621 -640 -860 -185 -257 -251 -344 -212 -280 87
144 576 998 612 1070 33 67 154 258 253 399 39 57 72 112 72 121 0 27 -32 58
-66 65 -44 9 -66 -15 -109 -115 -51 -119 -105 -216 -196 -352 -80 -119 -267
-435 -529 -893 -78 -137 -147 -254 -152 -260 -11 -12 100 233 317 700 207 445
237 514 228 527 -3 6 -2 8 3 5 6 -3 45 74 88 171 43 97 96 204 117 238 40 62
48 101 27 122 -14 14 -76 16 -96 4z m6 -177 c-6 -13 -14 -23 -17 -21 -3 2 -7
-6 -7 -17 -1 -12 -24 -71 -51 -130 -36 -79 -57 -112 -76 -122 l-27 -14 14 32
c39 89 100 213 108 218 5 3 9 9 8 13 -5 19 24 66 41 66 16 0 17 -3 7 -25z
m260 -65 c41 -20 42 -21 27 -44 -16 -24 -17 -24 -55 -8 -26 11 -35 21 -29 28
5 6 6 14 2 17 -3 4 -1 7 6 7 7 0 9 5 6 10 -9 14 -5 13 43 -10z m-54 -140 c-17
-25 -57 -87 -88 -137 -52 -85 -76 -107 -90 -85 -3 5 11 35 31 68 20 32 56 97
81 144 24 47 46 88 48 92 3 4 15 -3 27 -15 l22 -22 -31 -45z m60 38 c-4 -7
-21 -33 -39 -58 -17 -25 -58 -87 -90 -137 -58 -94 -79 -120 -49 -60 17 32 116
184 156 238 22 29 35 39 22 17z m-381 -133 c-3 -9 -8 -14 -10 -11 -3 3 -2 9 2
15 9 16 15 13 8 -4z m510 -90 c-32 -46 -60 -79 -61 -74 -2 5 -8 6 -14 3 -15
-9 -3 9 61 93 30 40 58 70 63 67 5 -3 -18 -43 -49 -89z m-545 53 c-3 -7 -12
-14 -21 -16 -12 -2 -15 1 -11 12 7 19 38 22 32 4z m452 -177 c0 -6 -4 -13 -10
-16 -5 -3 -10 1 -10 9 0 9 5 16 10 16 6 0 10 -4 10 -9z m-715 -342 c-8 -39
-16 -59 -25 -59 -6 0 -6 9 -1 23 5 12 12 30 15 40 8 24 16 21 11 -4z m154
-116 c-6 -7 -15 -10 -20 -7 -13 8 -3 21 15 21 12 0 13 -4 5 -14z m175 -68 c-9
-14 -19 -24 -21 -21 -6 6 20 46 30 46 4 0 0 -11 -9 -25z m-417 -5 c-1 -11 -7
-22 -14 -24 -9 -4 -10 0 -1 19 14 30 17 31 15 5z"/>
<path d="M746 2477 c3 -26 20 -108 39 -182 19 -73 41 -177 50 -231 27 -158
331 -1302 353 -1326 19 -22 55 -23 76 -2 9 8 16 17 16 18 0 1 -13 49 -29 107
-16 57 -59 219 -96 359 -155 591 -236 879 -255 905 -4 6 -31 97 -61 203 -40
144 -57 192 -69 192 -9 0 -11 -3 -5 -8 9 -6 95 -293 95 -315 0 -4 -8 -7 -18
-7 -15 0 -25 28 -60 168 -23 92 -39 146 -36 119z m119 -318 c-8 -12 -35 -12
-35 0 0 11 22 20 33 14 4 -2 5 -9 2 -14z m15 -35 c0 -14 -21 -19 -33 -7 -9 9
13 34 24 27 5 -3 9 -12 9 -20z m144 -603 c-6 -7 -11 2 -17 34 l-6 30 13 -30
c8 -16 12 -32 10 -34z"/>
<path d="M1184 2463 c4 -16 8 -82 11 -148 2 -66 7 -149 10 -185 12 -121 13
-115 -22 -118 -30 -3 -32 -1 -39 35 -13 72 -63 268 -84 325 -11 32 -20 67 -20
78 0 11 -5 20 -11 20 -15 0 -11 -21 46 -235 37 -141 48 -201 50 -275 2 -52 15
-176 29 -275 56 -385 138 -889 146 -905 5 -10 24 -23 41 -30 28 -12 36 -11 68
6 27 14 37 26 39 49 2 17 -13 134 -32 260 -20 127 -51 343 -71 480 -45 317
-73 466 -90 479 -9 8 -16 68 -24 211 -14 231 -17 255 -38 255 -11 0 -13 -7 -9
-27z m73 -899 c-3 -4 0 -13 8 -21 17 -16 20 -73 5 -73 -6 0 -8 11 -6 25 3 14
0 25 -5 25 -6 0 -8 4 -4 9 3 5 1 12 -5 16 -14 8 -13 25 2 25 6 0 9 -3 5 -6z
m-10 -86 c-3 -8 -6 -5 -6 6 -1 11 2 17 5 13 3 -3 4 -12 1 -19z m45 -137 c6 10
7 7 3 -10 -6 -18 -4 -22 6 -15 12 6 12 5 0 -9 -16 -20 -18 -21 -18 -4 0 6 -3
19 -5 27 -3 8 -3 11 0 6 2 -4 9 -2 14 5z m18 -91 c0 -5 -4 -10 -10 -10 -5 0
-10 5 -10 10 0 6 5 10 10 10 6 0 10 -4 10 -10z"/>
<path d="M241 2454 c-12 -15 -21 -34 -21 -43 0 -9 25 -61 55 -115 30 -55 55
-100 55 -102 0 -1 15 -35 34 -76 19 -40 46 -109 61 -153 25 -77 392 -962 492
-1190 48 -109 49 -110 83 -110 65 0 77 -36 -232 690 -115 270 -236 544 -268
610 -82 169 -124 275 -151 385 -32 132 -63 161 -108 104z m93 -100 c10 -26 7
-31 -21 -37 -27 -5 -53 7 -53 23 0 7 42 27 61 29 4 1 10 -6 13 -15z m16 -59
c0 -9 16 -57 35 -106 40 -105 39 -99 21 -99 -9 0 -34 40 -60 96 -43 90 -45 98
-29 110 24 18 33 17 33 -1z m90 -250 c16 -29 7 -43 -15 -25 -16 13 -21 50 -7
50 5 0 15 -11 22 -25z m248 -610 l0 -20 -5 20 c-3 11 -10 23 -15 26 -6 4 -7
13 -3 20 10 15 24 -13 23 -46z"/>
<path d="M2082 2440 c0 -19 2 -27 5 -17 2 9 2 25 0 35 -3 9 -5 1 -5 -18z"/>
<path d="M1664 2315 c0 -55 1 -76 3 -47 2 29 2 74 0 100 -2 26 -3 2 -3 -53z"/>
<path d="M1090 2390 c-12 -7 -8 -10 15 -10 17 0 37 5 45 10 12 7 8 10 -15 10
-16 0 -37 -5 -45 -10z"/>
<path d="M2300 2390 c0 -13 37 -50 50 -50 6 0 25 8 43 17 l32 16 -25 7 c-60
16 -100 21 -100 10z"/>
<path d="M1241 2374 c0 -11 3 -14 6 -6 3 7 2 16 -1 19 -3 4 -6 -2 -5 -13z"/>
<path d="M2072 2365 c0 -16 2 -22 5 -12 2 9 2 23 0 30 -3 6 -5 -1 -5 -18z"/>
<path d="M2062 2295 c0 -16 2 -22 5 -12 2 9 2 23 0 30 -3 6 -5 -1 -5 -18z"/>
<path d="M1253 2250 c0 -25 2 -35 4 -22 2 12 2 32 0 45 -2 12 -4 2 -4 -23z"/>
<path d="M48 2263 c-20 -24 -1 -77 22 -63 22 14 37 12 44 -6 5 -12 2 -15 -11
-10 -10 4 -14 4 -10 0 4 -4 2 -13 -3 -19 -8 -9 44 -120 183 -396 206 -408 579
-1112 605 -1142 21 -24 56 -18 60 10 3 23 -58 144 -391 768 -171 322 -286 527
-298 535 -5 3 -44 81 -88 173 -44 92 -84 167 -89 167 -5 0 -16 -8 -24 -17z
m78 -118 c-3 -8 -1 -15 3 -15 15 0 111 -199 100 -206 -15 -9 -20 -2 -81 118
-46 88 -53 108 -39 111 9 3 18 5 20 6 2 0 1 -6 -3 -14z m405 -773 c5 -14 7
-27 4 -30 -3 -3 -5 0 -5 7 0 7 -5 9 -12 5 -7 -5 -8 -3 -4 5 5 7 0 21 -10 32
-17 19 -17 20 0 13 10 -4 22 -18 27 -32z m69 -142 c0 -5 -4 -10 -10 -10 -5 0
-10 5 -10 10 0 6 5 10 10 10 6 0 10 -4 10 -10z m17 -29 c0 -11 -5 -18 -9 -15
-4 3 -5 11 -1 19 7 21 12 19 10 -4z m26 -45 c4 -10 1 -13 -9 -9 -7 3 -14 9
-14 14 0 14 17 10 23 -5z"/>
<path d="M2052 2235 c0 -16 2 -22 5 -12 2 9 2 23 0 30 -3 6 -5 -1 -5 -18z"/>
<path d="M2382 2113 c-23 -70 -40 -128 -38 -131 2 -2 23 54 46 123 23 69 40
128 38 130 -2 2 -23 -53 -46 -122z"/>
<path d="M1653 2140 c0 -30 2 -43 4 -27 2 15 2 39 0 55 -2 15 -4 2 -4 -28z"/>
<path d="M1261 2084 c0 -11 3 -14 6 -6 3 7 2 16 -1 19 -3 4 -6 -2 -5 -13z"/>
</g>
</svg>
